<mxfile host="app.diagrams.net" agent="Mozilla/5.0 (X11; Ubuntu; Linux x86_64; rv:143.0) Gecko/20100101 Firefox/143.0" version="28.2.5">
  <diagram name="Serverless" id="7O0l86QmLkLx486oV1sl">
    <mxGraphModel dx="1133" dy="663" grid="1" gridSize="10" guides="1" tooltips="1" connect="1" arrows="1" fold="1" page="1" pageScale="1" pageWidth="850" pageHeight="1100" math="0" shadow="0">
      <root>
        <mxCell id="0" />
        <mxCell id="1" parent="0" />
        <mxCell id="x9CqPO46XTNDlsLFc0kL-9" style="edgeStyle=orthogonalEdgeStyle;endArrow=block;entryX=0.5;entryY=1;entryDx=0;entryDy=0;entryPerimeter=0;" parent="1" target="x9CqPO46XTNDlsLFc0kL-20" edge="1">
          <mxGeometry relative="1" as="geometry">
            <mxPoint x="310" y="260" as="sourcePoint" />
            <mxPoint x="395" y="230" as="targetPoint" />
          </mxGeometry>
        </mxCell>
        <mxCell id="x9CqPO46XTNDlsLFc0kL-10" style="edgeStyle=orthogonalEdgeStyle;endArrow=block;entryX=0.5;entryY=0;entryDx=0;entryDy=0;entryPerimeter=0;" parent="1" target="x9CqPO46XTNDlsLFc0kL-25" edge="1">
          <mxGeometry relative="1" as="geometry">
            <mxPoint x="310" y="260" as="sourcePoint" />
            <mxPoint x="395" y="290" as="targetPoint" />
          </mxGeometry>
        </mxCell>
        <mxCell id="x9CqPO46XTNDlsLFc0kL-11" style="edgeStyle=orthogonalEdgeStyle;endArrow=block;" parent="1" edge="1">
          <mxGeometry relative="1" as="geometry">
            <mxPoint x="440" y="322" as="sourcePoint" />
            <mxPoint x="500" y="390" as="targetPoint" />
          </mxGeometry>
        </mxCell>
        <mxCell id="x9CqPO46XTNDlsLFc0kL-12" style="edgeStyle=orthogonalEdgeStyle;endArrow=block;" parent="1" edge="1">
          <mxGeometry relative="1" as="geometry">
            <mxPoint x="440" y="322" as="sourcePoint" />
            <mxPoint x="625" y="390" as="targetPoint" />
          </mxGeometry>
        </mxCell>
        <mxCell id="x9CqPO46XTNDlsLFc0kL-13" style="edgeStyle=orthogonalEdgeStyle;endArrow=block;" parent="1" edge="1">
          <mxGeometry relative="1" as="geometry">
            <mxPoint x="330" y="260" as="sourcePoint" />
            <mxPoint x="630" y="260" as="targetPoint" />
          </mxGeometry>
        </mxCell>
        <mxCell id="x9CqPO46XTNDlsLFc0kL-14" style="edgeStyle=orthogonalEdgeStyle;endArrow=block;" parent="1" source="x9CqPO46XTNDlsLFc0kL-25" edge="1">
          <mxGeometry relative="1" as="geometry">
            <mxPoint x="395" y="316" as="sourcePoint" />
            <mxPoint x="660" y="276" as="targetPoint" />
          </mxGeometry>
        </mxCell>
        <mxCell id="x9CqPO46XTNDlsLFc0kL-37" value="" style="edgeStyle=orthogonalEdgeStyle;rounded=0;orthogonalLoop=1;jettySize=auto;html=1;" parent="1" source="x9CqPO46XTNDlsLFc0kL-16" target="x9CqPO46XTNDlsLFc0kL-19" edge="1">
          <mxGeometry relative="1" as="geometry" />
        </mxCell>
        <mxCell id="x9CqPO46XTNDlsLFc0kL-16" value="" style="points=[];aspect=fixed;html=1;align=center;shadow=0;dashed=0;fillColor=#FF6A00;strokeColor=none;shape=mxgraph.alibaba_cloud.user;" parent="1" vertex="1">
          <mxGeometry x="120" y="230" width="50" height="50" as="geometry" />
        </mxCell>
        <mxCell id="x9CqPO46XTNDlsLFc0kL-19" value="" style="sketch=0;points=[[0,0,0],[0.25,0,0],[0.5,0,0],[0.75,0,0],[1,0,0],[0,1,0],[0.25,1,0],[0.5,1,0],[0.75,1,0],[1,1,0],[0,0.25,0],[0,0.5,0],[0,0.75,0],[1,0.25,0],[1,0.5,0],[1,0.75,0]];outlineConnect=0;fontColor=#232F3E;fillColor=#E7157B;strokeColor=#ffffff;dashed=0;verticalLabelPosition=bottom;verticalAlign=top;align=center;html=1;fontSize=12;fontStyle=0;aspect=fixed;shape=mxgraph.aws4.resourceIcon;resIcon=mxgraph.aws4.api_gateway;" parent="1" vertex="1">
          <mxGeometry x="265" y="233" width="44" height="44" as="geometry" />
        </mxCell>
        <mxCell id="x9CqPO46XTNDlsLFc0kL-20" value="" style="sketch=0;points=[[0,0,0],[0.25,0,0],[0.5,0,0],[0.75,0,0],[1,0,0],[0,1,0],[0.25,1,0],[0.5,1,0],[0.75,1,0],[1,1,0],[0,0.25,0],[0,0.5,0],[0,0.75,0],[1,0.25,0],[1,0.5,0],[1,0.75,0]];outlineConnect=0;fontColor=#232F3E;fillColor=#DD344C;strokeColor=#ffffff;dashed=0;verticalLabelPosition=bottom;verticalAlign=top;align=center;html=1;fontSize=12;fontStyle=0;aspect=fixed;shape=mxgraph.aws4.resourceIcon;resIcon=mxgraph.aws4.cognito;" parent="1" vertex="1">
          <mxGeometry x="320" y="130" width="44" height="44" as="geometry" />
        </mxCell>
        <mxCell id="x9CqPO46XTNDlsLFc0kL-31" value="" style="edgeStyle=orthogonalEdgeStyle;rounded=0;orthogonalLoop=1;jettySize=auto;html=1;" parent="1" source="x9CqPO46XTNDlsLFc0kL-25" target="x9CqPO46XTNDlsLFc0kL-19" edge="1">
          <mxGeometry relative="1" as="geometry">
            <Array as="points">
              <mxPoint x="280" y="320" />
            </Array>
          </mxGeometry>
        </mxCell>
        <mxCell id="x9CqPO46XTNDlsLFc0kL-26" value="" style="sketch=0;points=[[0,0,0],[0.25,0,0],[0.5,0,0],[0.75,0,0],[1,0,0],[0,1,0],[0.25,1,0],[0.5,1,0],[0.75,1,0],[1,1,0],[0,0.25,0],[0,0.5,0],[0,0.75,0],[1,0.25,0],[1,0.5,0],[1,0.75,0]];outlineConnect=0;fontColor=#232F3E;fillColor=#C925D1;strokeColor=#ffffff;dashed=0;verticalLabelPosition=bottom;verticalAlign=top;align=center;html=1;fontSize=12;fontStyle=0;aspect=fixed;shape=mxgraph.aws4.resourceIcon;resIcon=mxgraph.aws4.dynamodb;" parent="1" vertex="1">
          <mxGeometry x="480" y="393" width="44" height="44" as="geometry" />
        </mxCell>
        <mxCell id="x9CqPO46XTNDlsLFc0kL-27" value="" style="sketch=0;points=[[0,0,0],[0.25,0,0],[0.5,0,0],[0.75,0,0],[1,0,0],[0,1,0],[0.25,1,0],[0.5,1,0],[0.75,1,0],[1,1,0],[0,0.25,0],[0,0.5,0],[0,0.75,0],[1,0.25,0],[1,0.5,0],[1,0.75,0]];outlineConnect=0;fontColor=#232F3E;fillColor=#7AA116;strokeColor=#ffffff;dashed=0;verticalLabelPosition=bottom;verticalAlign=top;align=center;html=1;fontSize=12;fontStyle=0;aspect=fixed;shape=mxgraph.aws4.resourceIcon;resIcon=mxgraph.aws4.s3;" parent="1" vertex="1">
          <mxGeometry x="603" y="393" width="44" height="44" as="geometry" />
        </mxCell>
        <mxCell id="x9CqPO46XTNDlsLFc0kL-28" value="" style="sketch=0;points=[[0,0,0],[0.25,0,0],[0.5,0,0],[0.75,0,0],[1,0,0],[0,1,0],[0.25,1,0],[0.5,1,0],[0.75,1,0],[1,1,0],[0,0.25,0],[0,0.5,0],[0,0.75,0],[1,0.25,0],[1,0.5,0],[1,0.75,0]];points=[[0,0,0],[0.25,0,0],[0.5,0,0],[0.75,0,0],[1,0,0],[0,1,0],[0.25,1,0],[0.5,1,0],[0.75,1,0],[1,1,0],[0,0.25,0],[0,0.5,0],[0,0.75,0],[1,0.25,0],[1,0.5,0],[1,0.75,0]];outlineConnect=0;fontColor=#232F3E;fillColor=#E7157B;strokeColor=#ffffff;dashed=0;verticalLabelPosition=bottom;verticalAlign=top;align=center;html=1;fontSize=12;fontStyle=0;aspect=fixed;shape=mxgraph.aws4.resourceIcon;resIcon=mxgraph.aws4.cloudwatch_2;" parent="1" vertex="1">
          <mxGeometry x="631" y="231" width="44" height="44" as="geometry" />
        </mxCell>
        <mxCell id="x9CqPO46XTNDlsLFc0kL-36" value="" style="edgeStyle=orthogonalEdgeStyle;endArrow=block;" parent="1" target="x9CqPO46XTNDlsLFc0kL-25" edge="1">
          <mxGeometry relative="1" as="geometry">
            <mxPoint x="395" y="316" as="sourcePoint" />
            <mxPoint x="660" y="276" as="targetPoint" />
          </mxGeometry>
        </mxCell>
        <mxCell id="x9CqPO46XTNDlsLFc0kL-25" value="" style="sketch=0;points=[[0,0,0],[0.25,0,0],[0.5,0,0],[0.75,0,0],[1,0,0],[0,1,0],[0.25,1,0],[0.5,1,0],[0.75,1,0],[1,1,0],[0,0.25,0],[0,0.5,0],[0,0.75,0],[1,0.25,0],[1,0.5,0],[1,0.75,0]];outlineConnect=0;fontColor=#232F3E;fillColor=#ED7100;strokeColor=#ffffff;dashed=0;verticalLabelPosition=bottom;verticalAlign=top;align=center;html=1;fontSize=12;fontStyle=0;aspect=fixed;shape=mxgraph.aws4.resourceIcon;resIcon=mxgraph.aws4.lambda;" parent="1" vertex="1">
          <mxGeometry x="381" y="300" width="44" height="44" as="geometry" />
        </mxCell>
        <mxCell id="EKKtI0nP4FMp0vIn0Wc7-1" value="&lt;div&gt;Fig:&amp;nbsp;Architecture Diagram&lt;/div&gt;" style="text;html=1;align=center;verticalAlign=middle;whiteSpace=wrap;rounded=0;fontStyle=1;fontColor=light-dark(#613583, #ededed);" vertex="1" parent="1">
          <mxGeometry x="305" y="490" width="170" height="30" as="geometry" />
        </mxCell>
        <mxCell id="EKKtI0nP4FMp0vIn0Wc7-2" value="API Gateway: REST API Endpoint" style="text;html=1;align=center;verticalAlign=middle;resizable=0;points=[];autosize=1;strokeColor=none;fillColor=none;fontSize=8;fontColor=light-dark(#ed333b, #ededed);fontStyle=1" vertex="1" parent="1">
          <mxGeometry x="200" y="211" width="140" height="20" as="geometry" />
        </mxCell>
        <mxCell id="EKKtI0nP4FMp0vIn0Wc7-3" value="Cognito: User AuthZ" style="text;html=1;align=center;verticalAlign=middle;resizable=0;points=[];autosize=1;strokeColor=none;fillColor=none;fontSize=8;fontStyle=1;fontColor=light-dark(#ed333b, #ededed);" vertex="1" parent="1">
          <mxGeometry x="356" y="138" width="100" height="20" as="geometry" />
        </mxCell>
        <mxCell id="EKKtI0nP4FMp0vIn0Wc7-4" value="Lambda: Business Logic" style="text;html=1;align=center;verticalAlign=middle;resizable=0;points=[];autosize=1;strokeColor=none;fillColor=none;fontSize=8;fontStyle=1;fontColor=light-dark(#ed333b, #ededed);" vertex="1" parent="1">
          <mxGeometry x="346" y="343" width="110" height="20" as="geometry" />
        </mxCell>
        <mxCell id="EKKtI0nP4FMp0vIn0Wc7-5" value="&lt;table class=&quot;border-subtler my-[1em] w-full table-auto border-separate border-spacing-0 border-l border-t&quot;&gt;&lt;tbody&gt;&lt;tr&gt;&lt;td class=&quot;px-sm border-subtler min-w-[48px] break-normal border-b border-r&quot;&gt;DynamoDB: NoSQL Storage&lt;/td&gt;&lt;/tr&gt;&lt;/tbody&gt;&lt;/table&gt;" style="text;html=1;align=center;verticalAlign=middle;resizable=0;points=[];autosize=1;strokeColor=none;fillColor=none;fontSize=8;fontColor=light-dark(#ed333b, #ededed);fontStyle=1" vertex="1" parent="1">
          <mxGeometry x="436" y="432" width="130" height="30" as="geometry" />
        </mxCell>
        <mxCell id="EKKtI0nP4FMp0vIn0Wc7-8" value="S3: Files/Receipts" style="text;html=1;align=center;verticalAlign=middle;resizable=0;points=[];autosize=1;strokeColor=none;fillColor=none;fontSize=8;fontColor=light-dark(#ed333b, #ededed);fontStyle=1" vertex="1" parent="1">
          <mxGeometry x="580" y="436" width="90" height="20" as="geometry" />
        </mxCell>
        <mxCell id="EKKtI0nP4FMp0vIn0Wc7-9" value="Cloudwatch: Monitoring/Logging" style="text;html=1;align=center;verticalAlign=middle;resizable=0;points=[];autosize=1;strokeColor=none;fillColor=none;fontColor=light-dark(#ed333b, #ededed);fontSize=8;fontStyle=1" vertex="1" parent="1">
          <mxGeometry x="583" y="210" width="140" height="20" as="geometry" />
        </mxCell>
        <mxCell id="EKKtI0nP4FMp0vIn0Wc7-10" value="Client" style="text;html=1;align=center;verticalAlign=middle;resizable=0;points=[];autosize=1;strokeColor=none;fillColor=none;fontSize=8;fontColor=light-dark(#ed333b, #ededed);fontStyle=1" vertex="1" parent="1">
          <mxGeometry x="85" y="245" width="40" height="20" as="geometry" />
        </mxCell>
      </root>
    </mxGraphModel>
  </diagram>
</mxfile>
